<svg xmlns="http://www.w3.org/2000/svg" fill="none" viewBox="0 0 87 34"><g clip-path="url(#a)"><path fill="#DD4F50" d="M50.164 6.882v4.025l6.557 5.192-6.557 5.19v4.028l11.644-9.218-11.644-9.217Z"/><path fill="#20252A" d="M36.87 13.299c-.026-.082-.056-.159-.085-.248l-.015-.045a9.107 9.107 0 0 0-4.075-4.823 8.97 8.97 0 0 0-6.204-.981l-.061.012-.327.077-.14.035-.262.077-.177.054-.088.027c-.057.018-.11.04-.165.06l-.157.057c-.103.037-.204.08-.304.121l-.079.033a8.982 8.982 0 0 0-4.173 3.655l-.027.047c-.06.1-.116.198-.17.298-.03.054-.059.106-.085.16l-.074.14-.032.069a3.41 3.41 0 0 0-.11.248c-.037.091-.05.106-.072.16a7.229 7.229 0 0 1-.108.249c-.034.074-.041.104-.061.158l-.088.248-.064.191c-.022.065-.042.136-.062.206-.02.07-.046.16-.069.248l-.036.15c-.025.105-.05.209-.072.313 0 .03 0 .06-.017.09-.027.126-.049.247-.068.378a.193.193 0 0 1 0 .038 9.038 9.038 0 0 0-.101 1.363v.5c0 .112.015.226.024.337 0 .057 0 .112.018.166.017.055.017.152.027.226.01.074.024.181.041.273 0 .034 0 .072.02.109.023.125.047.25.074.372v.012c.127.577.31 1.14.547 1.68l.047.104c.04.087.078.174.123.26.044.087.073.152.113.226l.066.124a9.009 9.009 0 0 0 2.845 3.167l.09.06c.08.054.158.107.246.156l.207.124.14.082c.103.057.206.114.311.168l.04.02h.017c.462.235.943.43 1.438.58l.091.027.363.1.192.044c.086.017.172.037.245.052.074.015.175.035.263.047l.172.027.331.043h.062a8.524 8.524 0 0 0 1.718.005h.086l.273-.033.189-.027.117-.02a8.892 8.892 0 0 0 2.905-1.03l.044-.026.26-.153.16-.08.152-.099.245-.166.057-.042a9.092 9.092 0 0 0 2.7-3.145l-2.931-1.556a5.791 5.791 0 0 1-1.205 1.539c-.091.081-.182.166-.278.247l-.172.134a7.859 7.859 0 0 1-.245.181c-.081.057-.165.107-.246.159l-.196.114a5.3 5.3 0 0 1-.336.168l-.135.065a7.122 7.122 0 0 1-.403.156l-.13.045-.196.062c-.12.032-.246.062-.366.089l-.15.03a5.05 5.05 0 0 1-.437.064h-.076a6.834 6.834 0 0 1-.506.025h-.032c-.154 0-.307 0-.456-.02h-.022a5.02 5.02 0 0 1-.433-.055h-.029a6.117 6.117 0 0 1-.383-.079l-.127-.032a7.145 7.145 0 0 1-.33-.1l-.166-.061-.19-.072-.245-.107-.201-.099a5.737 5.737 0 0 1-.88-.562c-.063-.05-.124-.102-.186-.154-.061-.052-.127-.107-.189-.164a5.049 5.049 0 0 1-.206-.2l-.155-.147a4.372 4.372 0 0 1-.198-.228c-.064-.079-.089-.114-.133-.17a5.211 5.211 0 0 1-.211-.293c-.066-.102-.15-.226-.219-.345l-.058-.138c-.067-.12-.128-.248-.187-.37-.015-.032-.027-.067-.042-.099a5.847 5.847 0 0 1-.194-.513c0-.04-.024-.077-.034-.116H37.32v-1.663c0-.976-.155-1.945-.46-2.87h.01Zm-14.088 1.2a3.94 3.94 0 0 1 .142-.414c0-.03.025-.06.037-.092.04-.1.081-.196.128-.293.015-.032.027-.064.044-.094a6.682 6.682 0 0 1 .248-.454c.061-.104.088-.14.135-.21l.128-.184c.063-.086.127-.173.196-.247l.047-.057a5.78 5.78 0 0 1 .913-.895l.024-.02c.103-.08.21-.151.317-.223l.106-.067c.098-.062.194-.119.294-.173.062-.035.128-.065.192-.097s.162-.084.245-.121c.15-.065.302-.124.46-.179.156-.055.27-.087.41-.121h.029a5.682 5.682 0 0 1 4.063.495l.095.055a5.808 5.808 0 0 1 2.357 2.478c.017.037.037.072.054.11.047.096.089.195.128.294.039.1.056.142.08.21.025.07.077.212.109.318l-10.981-.02ZM14.794 9.11a8.975 8.975 0 0 0-9.612-1.197 9.08 9.08 0 0 0-3.778 3.372A9.202 9.202 0 0 0 0 16.174c0 1.73.487 3.426 1.404 4.889a9.08 9.08 0 0 0 3.778 3.371 8.974 8.974 0 0 0 9.612-1.197 5.815 5.815 0 0 1-.629 2.451 3.897 3.897 0 0 1-.12.226l-.027.047c-.037.062-.071.122-.11.18l-.047.078-.108.146-.064.092c-.032.042-.064.086-.098.129l-.074.096-.103.124-.074.084c-.039.047-.08.092-.123.134l-.058.065-.155.153-.034.033a5.744 5.744 0 0 1-3.737 1.568h-.245a4.01 4.01 0 0 1-.427-.022l-.135-.012a7.099 7.099 0 0 1-.4-.057l-.172-.035a4.636 4.636 0 0 1-.354-.087l-.206-.062-.128-.047a5.522 5.522 0 0 1-.4-.154l-.137-.064c-.113-.054-.226-.109-.337-.168-.066-.038-.13-.077-.194-.117-.064-.04-.17-.102-.245-.156-.076-.055-.167-.119-.246-.181l-.172-.134a5.197 5.197 0 0 1-.274-.248 5.773 5.773 0 0 1-1.189-1.554l-2.928 1.557a9.061 9.061 0 0 0 2.7 3.145l.059.044.245.164c.052.035.101.07.155.102l.142.089a5.697 5.697 0 0 0 .305.18 8.907 8.907 0 0 0 3.292 1.086h.096l.262.028h.145c.079 0 .16 0 .246.015h.731l.31-.02h.049a8.95 8.95 0 0 0 4.799-1.874h.017c.12-.097.246-.193.354-.292.059-.05.117-.1.174-.152.056-.052.054-.054.084-.079.076-.072.15-.141.22-.213l.067-.067c.08-.082.16-.166.245-.248l.042-.047a8.943 8.943 0 0 0 .997-1.343l.061-.102.133-.23.085-.159.081-.159a8.777 8.777 0 0 0 .572-1.413 9.258 9.258 0 0 0 .408-2.714V7.139h-3.326V9.11Zm-5.74 12.853a5.701 5.701 0 0 1-3.189-.976 5.783 5.783 0 0 1-2.114-2.6 5.846 5.846 0 0 1-.326-3.349 5.812 5.812 0 0 1 1.57-2.966 5.723 5.723 0 0 1 2.94-1.586 5.69 5.69 0 0 1 3.316.33 5.752 5.752 0 0 1 2.575 2.134 5.834 5.834 0 0 1-.715 7.315 5.717 5.717 0 0 1-4.057 1.698ZM47.63 10.411V7.068h-5.736V2.077h-3.312v14.092a9.193 9.193 0 0 0 2.653 6.457 9.018 9.018 0 0 0 6.396 2.68v-3.343a5.72 5.72 0 0 1-4.057-1.7 5.83 5.83 0 0 1-1.683-4.094V10.41h5.74ZM66.555 7.05h-3.311v18.135h3.311V7.051ZM78.047 6.924a8.854 8.854 0 0 0-5.622 2.02V7.051h-3.321v18.134h3.321v-9.23c0-1.507.594-2.953 1.65-4.02a5.605 5.605 0 0 1 3.982-1.665c1.493 0 2.926.6 3.982 1.665a5.713 5.713 0 0 1 1.65 4.02v9.23H87v-9.23a9.083 9.083 0 0 0-2.625-6.386 8.91 8.91 0 0 0-6.328-2.645Z"/></g><defs><clipPath id="a"><path fill="#fff" d="M0 0h87v34H0z"/></clipPath></defs></svg>